<svg width="90" height="27" viewBox="0 0 90 27" fill="none" xmlns="http://www.w3.org/2000/svg">
<path d="M81.5569 20.8865C80.5677 20.8865 79.6701 20.685 78.8641 20.282C78.0764 19.8607 77.4444 19.2836 76.9681 18.5509C76.4918 17.8182 76.2262 16.9847 76.1713 16.0505V12.1212C76.2262 11.1686 76.4918 10.3351 76.9681 9.62074C77.4627 8.88801 78.1039 8.32014 78.8915 7.91714C79.6976 7.49582 80.586 7.28516 81.5569 7.28516C82.7475 7.28516 83.8192 7.58741 84.7717 8.19191C85.7426 8.79641 86.5028 9.61158 87.0523 10.6374C87.6019 11.6632 87.8767 12.8173 87.8767 14.0996C87.8767 15.3818 87.6019 16.5359 87.0523 17.5617C86.5028 18.5875 85.7426 19.4027 84.7717 20.0072C83.8192 20.5934 82.7475 20.8865 81.5569 20.8865ZM81.1447 18.5509C81.969 18.5509 82.6926 18.3586 83.3154 17.9739C83.9382 17.5892 84.4328 17.0671 84.7992 16.4077C85.1656 15.7299 85.3487 14.9514 85.3487 14.0721C85.3487 13.2111 85.1656 12.4418 84.7992 11.764C84.4328 11.0862 83.9382 10.5641 83.3154 10.1978C82.6926 9.81308 81.9782 9.62074 81.1722 9.62074C80.3478 9.62074 79.6243 9.81308 79.0015 10.1978C78.3786 10.5641 77.8932 11.0862 77.5452 11.764C77.1971 12.4418 77.0231 13.2203 77.0231 14.0996C77.0231 14.9605 77.1879 15.7299 77.5177 16.4077C77.8657 17.0671 78.3512 17.5892 78.974 17.9739C79.6151 18.3586 80.3387 18.5509 81.1447 18.5509ZM74.6875 26.0797V7.55993H77.1605V10.9946L76.6933 14.1545L77.1605 17.3419V26.0797H74.6875Z" fill="#ffffff"/>
<path d="M64.7966 20.8865C63.606 20.8865 62.5252 20.5934 61.5543 20.0072C60.5834 19.4027 59.8141 18.5875 59.2462 17.5617C58.6967 16.5359 58.4219 15.3818 58.4219 14.0996C58.4219 12.8173 58.6967 11.6632 59.2462 10.6374C59.8141 9.61158 60.5743 8.79641 61.5268 8.19191C62.4977 7.58741 63.5876 7.28516 64.7966 7.28516C65.7858 7.28516 66.6651 7.49582 67.4345 7.91714C68.2222 8.32014 68.8541 8.88801 69.3304 9.62074C69.8067 10.3351 70.0723 11.1686 70.1273 12.1212V16.0505C70.0723 16.9847 69.8067 17.8182 69.3304 18.5509C68.8725 19.2836 68.2496 19.8607 67.4619 20.282C66.6926 20.685 65.8041 20.8865 64.7966 20.8865ZM65.2088 18.5509C66.4361 18.5509 67.4253 18.1387 68.1764 17.3144C68.9274 16.4718 69.3029 15.4002 69.3029 14.0996C69.3029 13.202 69.1289 12.4234 68.7809 11.764C68.4511 11.0862 67.9749 10.5641 67.352 10.1978C66.7292 9.81308 66.0056 9.62074 65.1813 9.62074C64.357 9.62074 63.6243 9.81308 62.9831 10.1978C62.3603 10.5824 61.8657 11.1137 61.4993 11.7915C61.1513 12.4509 60.9773 13.2111 60.9773 14.0721C60.9773 14.9514 61.1513 15.7299 61.4993 16.4077C61.8657 17.0671 62.3695 17.5892 63.0106 17.9739C63.6517 18.3586 64.3845 18.5509 65.2088 18.5509ZM69.1381 20.6117V17.0946L69.6052 13.9072L69.1381 10.7473V7.55993H71.6385V20.6117H69.1381Z" fill="#ffffff"/>
<path d="M52.58 20.8865C51.2977 20.8865 50.1345 20.5842 49.0904 19.9797C48.0646 19.3752 47.2494 18.5601 46.6449 17.5342C46.0587 16.4901 45.7656 15.336 45.7656 14.0721C45.7656 12.7898 46.0587 11.6357 46.6449 10.6099C47.2494 9.5841 48.0646 8.7781 49.0904 8.19191C50.1345 7.58741 51.2977 7.28516 52.58 7.28516C53.5875 7.28516 54.5218 7.4775 55.3827 7.86218C56.2437 8.22855 56.9856 8.76894 57.6084 9.48335L55.9597 11.132C55.5567 10.6557 55.0622 10.2985 54.476 10.0604C53.9081 9.80392 53.2761 9.67569 52.58 9.67569C51.7557 9.67569 51.023 9.86803 50.3818 10.2527C49.7407 10.6191 49.2369 11.132 48.8706 11.7915C48.5042 12.4509 48.321 13.2111 48.321 14.0721C48.321 14.933 48.5042 15.6932 48.8706 16.3527C49.2369 17.0122 49.7407 17.5342 50.3818 17.9189C51.023 18.3036 51.7557 18.4959 52.58 18.4959C53.2761 18.4959 53.9081 18.3769 54.476 18.1387C55.0622 17.8823 55.5659 17.5159 55.9872 17.0396L57.6084 18.6883C57.0039 19.3844 56.262 19.9248 55.3827 20.3095C54.5218 20.6941 53.5875 20.8865 52.58 20.8865Z" fill="#ffffff"/>
<path d="M41.0485 20.6111V7.55932H43.5214V20.6111H41.0485ZM42.285 4.94896C41.827 4.94896 41.4515 4.80242 41.1584 4.50933C40.8653 4.19792 40.7188 3.81323 40.7188 3.35528C40.7188 2.91564 40.8653 2.54927 41.1584 2.25618C41.4515 1.94477 41.827 1.78906 42.285 1.78906C42.7429 1.78906 43.1184 1.94477 43.4115 2.25618C43.7046 2.54927 43.8512 2.91564 43.8512 3.35528C43.8512 3.81323 43.7046 4.19792 43.4115 4.50933C43.1184 4.80242 42.7429 4.94896 42.285 4.94896Z" fill="#ffffff"/>
<path d="M30.5391 20.6117V7.55993H33.012V20.6117H30.5391ZM33.012 13.1653L32.0778 12.7532C32.0778 11.0862 32.4625 9.75812 33.2318 8.76894C34.0012 7.77975 35.1095 7.28516 36.5566 7.28516C37.2161 7.28516 37.8114 7.40423 38.3426 7.64236C38.8739 7.86218 39.3685 8.23771 39.8264 8.76894L38.2053 10.4451C37.9305 10.152 37.6282 9.94131 37.2985 9.81308C36.9688 9.68485 36.5841 9.62074 36.1445 9.62074C35.2285 9.62074 34.4775 9.91383 33.8913 10.5C33.3051 11.0862 33.012 11.9746 33.012 13.1653Z" fill="#ffffff"/>
<path d="M22.4046 20.8865C21.104 20.8865 19.9317 20.5934 18.8875 20.0072C17.8434 19.4027 17.0191 18.5875 16.4146 17.5617C15.8101 16.5359 15.5078 15.3727 15.5078 14.0721C15.5078 12.7898 15.8009 11.6357 16.3871 10.6099C16.9916 9.5841 17.7976 8.7781 18.8051 8.19191C19.8309 7.58741 20.9758 7.28516 22.2398 7.28516C23.4488 7.28516 24.5112 7.55993 25.4272 8.10948C26.3614 8.65903 27.085 9.41924 27.5979 10.3901C28.1291 11.361 28.3947 12.4601 28.3947 13.6874C28.3947 13.8706 28.3856 14.0721 28.3672 14.2919C28.3489 14.4934 28.3123 14.7315 28.2573 15.0063H17.2389V12.9455H26.9384L26.0317 13.7423C26.0317 12.8631 25.876 12.1212 25.5645 11.5167C25.2531 10.8939 24.8135 10.4176 24.2456 10.0879C23.6778 9.73981 22.9908 9.56578 22.1848 9.56578C21.3422 9.56578 20.6003 9.74896 19.9592 10.1153C19.318 10.4817 18.8234 10.9946 18.4754 11.6541C18.1273 12.3135 17.9533 13.092 17.9533 13.9896C17.9533 14.9056 18.1365 15.7116 18.5029 16.4077C18.8692 17.0854 19.3913 17.6167 20.0691 18.0013C20.7468 18.3677 21.5254 18.5509 22.4046 18.5509C23.1374 18.5509 23.806 18.4227 24.4105 18.1662C25.0333 17.9098 25.5645 17.5251 26.0042 17.0122L27.5979 18.6333C26.9751 19.3661 26.2057 19.9248 25.2898 20.3095C24.3922 20.6941 23.4305 20.8865 22.4046 20.8865Z" fill="#ffffff"/>
<path d="M7.86508 20.6104L1.875 7.55859H4.62274L9.43129 18.577H7.8376L12.6736 7.55859H15.3115L9.32138 20.6104H7.86508Z" fill="#ffffff"/>
</svg>
